<svg width="138" height="138" viewBox="0 0 138 138" fill="none" xmlns="http://www.w3.org/2000/svg">
<g filter="url(#filter0_i_11_549)">
<path d="M138 69C138 107.108 107.108 138 69 138C30.8924 138 0 107.108 0 69C0 30.8924 30.8924 3.43677e-05 69 3.43677e-05C107.108 3.43677e-05 138 30.8924 138 69Z" fill="#BCE95C" fill-opacity="0.1"/>
</g>
<path d="M84.2869 53.5977C83.9669 54.1577 83.6202 54.5711 83.2469 54.8377C82.9002 55.0777 82.4602 55.1977 81.9269 55.1977C81.3669 55.1977 80.7535 54.9977 80.0869 54.5977C79.4469 54.1711 78.6735 53.7044 77.7669 53.1977C76.8602 52.6911 75.7935 52.2377 74.5669 51.8377C73.3669 51.4111 71.9402 51.1977 70.2869 51.1977C68.7935 51.1977 67.4869 51.3844 66.3669 51.7577C65.2469 52.1044 64.3002 52.5977 63.5269 53.2377C62.7802 53.8777 62.2202 54.6511 61.8469 55.5577C61.4735 56.4377 61.2869 57.4111 61.2869 58.4777C61.2869 59.8377 61.6602 60.9711 62.4069 61.8777C63.1802 62.7844 64.1935 63.5577 65.4469 64.1977C66.7002 64.8377 68.1269 65.4111 69.7269 65.9177C71.3269 66.4244 72.9669 66.9711 74.6469 67.5577C76.3269 68.1177 77.9669 68.7844 79.5669 69.5577C81.1669 70.3044 82.5935 71.2644 83.8469 72.4377C85.1002 73.5844 86.1002 74.9977 86.8469 76.6777C87.6202 78.3577 88.0069 80.3977 88.0069 82.7977C88.0069 85.4111 87.5535 87.8644 86.6469 90.1577C85.7669 92.4244 84.4602 94.4111 82.7269 96.1177C81.0202 97.7977 78.9269 99.1311 76.4469 100.118C73.9669 101.078 71.1269 101.558 67.9269 101.558C66.0869 101.558 64.2735 101.371 62.4869 100.998C60.7002 100.651 58.9802 100.144 57.3269 99.4777C55.7002 98.8111 54.1669 98.0111 52.7269 97.0777C51.2869 96.1444 50.0069 95.1044 48.8869 93.9577L52.0469 88.7977C52.3135 88.4244 52.6602 88.1177 53.0869 87.8777C53.5135 87.6111 53.9669 87.4777 54.4469 87.4777C55.1135 87.4777 55.8335 87.7577 56.6069 88.3177C57.3802 88.8511 58.3002 89.4511 59.3669 90.1177C60.4335 90.7844 61.6735 91.3977 63.0869 91.9577C64.5269 92.4911 66.2469 92.7577 68.2469 92.7577C71.3135 92.7577 73.6869 92.0377 75.3669 90.5977C77.0469 89.1311 77.8869 87.0377 77.8869 84.3177C77.8869 82.7977 77.5002 81.5577 76.7269 80.5977C75.9802 79.6377 74.9802 78.8377 73.7269 78.1977C72.4735 77.5311 71.0469 76.9711 69.4469 76.5177C67.8469 76.0644 66.2202 75.5711 64.5669 75.0377C62.9135 74.5044 61.2869 73.8644 59.6869 73.1177C58.0869 72.3711 56.6602 71.3977 55.4069 70.1977C54.1535 68.9977 53.1402 67.5044 52.3669 65.7177C51.6202 63.9044 51.2469 61.6777 51.2469 59.0377C51.2469 56.9311 51.6602 54.8777 52.4869 52.8777C53.3402 50.8777 54.5669 49.1044 56.1669 47.5577C57.7669 46.0111 59.7402 44.7711 62.0869 43.8377C64.4335 42.9044 67.1269 42.4377 70.1669 42.4377C73.5802 42.4377 76.7269 42.9711 79.6069 44.0377C82.4869 45.1044 84.9402 46.5977 86.9669 48.5177L84.2869 53.5977Z" fill="#8C8C8C"/>
<defs>
<filter id="filter0_i_11_549" x="0" y="0" width="138" height="142" filterUnits="userSpaceOnUse" color-interpolation-filters="sRGB">
<feFlood flood-opacity="0" result="BackgroundImageFix"/>
<feBlend mode="normal" in="SourceGraphic" in2="BackgroundImageFix" result="shape"/>
<feColorMatrix in="SourceAlpha" type="matrix" values="0 0 0 0 0 0 0 0 0 0 0 0 0 0 0 0 0 0 127 0" result="hardAlpha"/>
<feOffset dy="4"/>
<feGaussianBlur stdDeviation="2"/>
<feComposite in2="hardAlpha" operator="arithmetic" k2="-1" k3="1"/>
<feColorMatrix type="matrix" values="0 0 0 0 0 0 0 0 0 0 0 0 0 0 0 0 0 0 0.25 0"/>
<feBlend mode="normal" in2="shape" result="effect1_innerShadow_11_549"/>
</filter>
</defs>
</svg>
