<svg width="47" height="40" viewBox="0 0 47 40" fill="none" xmlns="http://www.w3.org/2000/svg">
<path d="M5.51951 20.2852L5.43155 20.2047C1.03628 15.4405 0.79685 10.7947 2.43164 7.41497C4.1203 3.92387 7.92774 1.5 12.1634 1.5C16.4328 1.5 18.7346 3.30394 20.0654 5.14574C21.1802 6.68866 21.6077 8.18441 21.8839 9.15106C21.9618 9.42376 22.0277 9.65435 22.0936 9.83201L22.0943 9.8339C22.1273 9.92285 22.2583 10.2762 22.611 10.5536C22.8255 10.7223 23.1326 10.8699 23.5106 10.8822C23.8757 10.8942 24.1654 10.7754 24.352 10.6639C24.6733 10.4719 24.8437 10.2102 24.8908 10.1379L24.8909 10.1377C24.9634 10.0265 25.0169 9.91905 25.0517 9.84494C25.1473 9.64135 25.2619 9.33223 25.3704 9.03971C25.3983 8.96452 25.4257 8.89043 25.4524 8.81951C25.7518 8.02249 26.1874 6.93666 26.8725 5.83543C28.2191 3.67065 30.4769 1.5 34.5967 1.5C38.8381 1.5 42.7327 3.93095 44.497 7.43621C46.2003 10.8202 46.0276 15.4534 41.6447 20.2047L41.5568 20.2852C41.4687 20.366 41.3388 20.4851 41.171 20.6395C40.8354 20.9483 40.3482 21.398 39.7403 21.9627C38.5247 23.0918 36.8259 24.6814 34.8925 26.5239C31.397 29.855 27.1176 34.0287 23.5381 37.8073C19.9587 34.0287 15.6793 29.855 12.1837 26.5239C10.2503 24.6814 8.55158 23.0918 7.33596 21.9627C6.72809 21.398 6.24085 20.9483 5.90528 20.6395C5.73749 20.4851 5.60761 20.366 5.51951 20.2852ZM22.3338 8.57457C22.3338 8.57463 22.3344 8.57334 22.3357 8.57082C22.3345 8.5733 22.3339 8.57451 22.3338 8.57457Z" fill="#FF89A5" stroke="#FF89A5" stroke-width="3"/>
</svg>
