<svg width="55" height="55" viewBox="0 0 55 55" fill="none" xmlns="http://www.w3.org/2000/svg">
<rect width="55" height="55" fill="#F5F5F5"/>
<g clip-path="url(#clip0_0_1)">
<rect width="1440" height="4969" transform="translate(-930 -598)" fill="white"/>
<path d="M-675.544 394.111C-611.5 447.5 -391.343 483.198 -252.968 372.347C-114.594 261.495 -129.482 -25.4787 -168.921 -89.0021C-217.283 -169.819 -295.383 -253.814 -398.318 -211.782C-519.46 -162.316 -429.078 15.6719 -532.168 4.5432C-635.259 -6.58547 -772.489 67.741 -781.882 157.268C-793.5 268 -782.461 304.983 -675.544 394.111Z" fill="#B2DC58" fill-opacity="0.1"/>
<circle cx="27.5" cy="27.5" r="27.5" fill="#8C8C8C"/>
<g filter="url(#filter1_i_0_1)">
<path fill-rule="evenodd" clip-rule="evenodd" d="M2.84483 27.5C2.84483 33.3671 4.89415 38.7555 8.31602 42.9885C8.31602 22.2845 13.592 30.977 23.0747 33.3477C23.0747 33.3477 36.8247 40.6178 33.3477 26.8678C29.8707 13.1178 26.3621 3.80442 43.3046 8.57589C39.0253 4.99816 33.5141 2.84483 27.5 2.84483C13.8833 2.84483 2.84483 13.8833 2.84483 27.5Z" fill="#FF89A5"/>
<path d="M27.5 52.1552C41.1167 52.1552 52.1552 41.1167 52.1552 27.5C52.1552 19.8974 48.7141 13.0986 43.3046 8.57589C26.3621 3.80442 29.8707 13.1178 33.3477 26.8678C36.8247 40.6178 23.0747 33.3477 23.0747 33.3477C13.592 30.977 8.31602 22.2845 8.31602 42.9885C12.8359 48.5798 19.7504 52.1552 27.5 52.1552Z" fill="#8EE670"/>
</g>
</g>
<defs>
<filter id="filter1_i_0_1" x="2.84483" y="2.84483" width="49.3103" height="53.3103" filterUnits="userSpaceOnUse" color-interpolation-filters="sRGB">
<feFlood flood-opacity="0" result="BackgroundImageFix"/>
<feBlend mode="normal" in="SourceGraphic" in2="BackgroundImageFix" result="shape"/>
<feColorMatrix in="SourceAlpha" type="matrix" values="0 0 0 0 0 0 0 0 0 0 0 0 0 0 0 0 0 0 127 0" result="hardAlpha"/>
<feOffset dy="4"/>
<feGaussianBlur stdDeviation="2"/>
<feComposite in2="hardAlpha" operator="arithmetic" k2="-1" k3="1"/>
<feColorMatrix type="matrix" values="0 0 0 0 0 0 0 0 0 0 0 0 0 0 0 0 0 0 0.25 0"/>
<feBlend mode="normal" in2="shape" result="effect1_innerShadow_0_1"/>
</filter>
<clipPath id="clip0_0_1">
<rect width="1440" height="4969" fill="white" transform="translate(-930 -598)"/>
</clipPath>
</defs>
</svg>
