<!DOCTYPE svg PUBLIC "-//W3C//DTD SVG 1.1//EN" "http://www.w3.org/Graphics/SVG/1.1/DTD/svg11.dtd">

<!-- Uploaded to: SVG Repo, www.svgrepo.com, Transformed by: SVG Repo Mixer Tools -->
<svg width="800px" height="800px" viewBox="-6.24 -6.24 36.48 36.48" fill="none" xmlns="http://www.w3.org/2000/svg" stroke="#ff0505">

<g id="SVGRepo_bgCarrier" stroke-width="0">

<path transform="translate(-6.24, -6.24), scale(1.14)" d="M16,30.34161771514586C18.17177573089573,30.85751724076998,20.736083882445392,30.919873441809944,22.577223706289303,29.657745756152547C24.443294282177764,28.378527683349002,24.399036847649263,25.583360109719802,25.67075976425673,23.712173562269413C26.831744050483383,22.003925523471857,29.00201905212539,21.066708790455447,29.729715910802597,19.133718061871306C30.475835473726843,17.15179086189754,30.43905648547801,14.864828429175182,29.756087918574515,12.860262699448187C29.089605275751676,10.904084435903997,27.166975651773836,9.73492467674911,25.956746365677006,8.059759733520998C24.684675532087855,6.298995479828157,24.380503971825963,3.6035332506839106,22.409272119063615,2.691009308309889C20.432154211725518,1.775760589690513,18.175963803531445,3.3416864955655967,16,3.4505761744720598C13.940365345153321,3.553644504867492,11.768311140400707,2.460892526386087,9.892372382561526,3.3173805700928813C8.016534992720114,4.173822332716275,7.090784618191558,6.274046398561259,5.992791615104977,8.019517616045356C4.975129022397792,9.637288184425348,4.136148307250644,11.331990366454255,3.682806380111842,13.188680933460537C3.2254808064483966,15.06168677704243,3.2771478304287824,16.962829746295913,3.3386117666613426,18.889879240979774C3.410285088885376,21.13701874814609,2.54155467727016,23.865798182886632,4.075775415679404,25.509251789053017C5.6493112057895525,27.194819585098926,8.636051954068439,25.98765122956407,10.773126791641744,26.85371405432661C12.739008598789837,27.65039984235511,13.93624957124214,29.851379311586744,16,30.34161771514586" fill="#ffffff" strokewidth="0"/>

</g>

<g id="SVGRepo_tracerCarrier" stroke-linecap="round" stroke-linejoin="round"/>

<g id="SVGRepo_iconCarrier"> <path opacity="0.1" d="M4.44905 17.0091C-0.246262 7.83768 7.34063 0.686186 19.5547 3.61251C20.4161 3.81888 21.0082 4.6099 20.9652 5.49458C20.5863 13.288 17.0342 17.7048 6.13264 17.9858C5.43034 18.0039 4.7692 17.6344 4.44905 17.0091Z" fill="#19ab11"/> <path d="M4.44905 17.0091C-0.246262 7.83768 7.34063 0.686186 19.5547 3.61251C20.4161 3.81888 21.0082 4.6099 20.9652 5.49458C20.5863 13.288 17.0342 17.7048 6.13264 17.9858C5.43034 18.0039 4.7692 17.6344 4.44905 17.0091Z" stroke="#19ab11" stroke-width="2" stroke-linecap="round" stroke-linejoin="round"/> <path d="M3.99987 21C5.49993 15.5 5.99988 12.5 11.9998 9.99997" stroke="#19ab11" stroke-width="2" stroke-linecap="round" stroke-linejoin="round"/> </g>

</svg>
