<svg width="138" height="138" viewBox="0 0 138 138" fill="none" xmlns="http://www.w3.org/2000/svg">
<g filter="url(#filter0_i_11_550)">
<path d="M138 69C138 107.108 107.108 138 69 138C30.8924 138 0 107.108 0 69C0 30.8924 30.8924 3.43677e-05 69 3.43677e-05C107.108 3.43677e-05 138 30.8924 138 69Z" fill="#BCE95C" fill-opacity="0.1"/>
</g>
<path d="M96.3703 71.9977C96.3703 76.2377 95.6636 80.1311 94.2503 83.6777C92.837 87.2244 90.8503 90.2777 88.2903 92.8377C85.7303 95.3977 82.6503 97.3844 79.0503 98.7977C75.4503 100.211 71.4503 100.918 67.0503 100.918H45.0103V43.0777H67.0503C71.4503 43.0777 75.4503 43.7977 79.0503 45.2377C82.6503 46.6511 85.7303 48.6377 88.2903 51.1977C90.8503 53.7311 92.837 56.7711 94.2503 60.3177C95.6636 63.8644 96.3703 67.7577 96.3703 71.9977ZM85.3303 71.9977C85.3303 68.8244 84.9036 65.9844 84.0503 63.4777C83.2236 60.9444 82.0103 58.8111 80.4103 57.0777C78.837 55.3177 76.917 53.9711 74.6503 53.0377C72.4103 52.1044 69.877 51.6377 67.0503 51.6377H55.8103V92.3577H67.0503C69.877 92.3577 72.4103 91.8911 74.6503 90.9577C76.917 90.0244 78.837 88.6911 80.4103 86.9577C82.0103 85.1977 83.2236 83.0644 84.0503 80.5577C84.9036 78.0244 85.3303 75.1711 85.3303 71.9977Z" fill="#8C8C8C"/>
<defs>
<filter id="filter0_i_11_550" x="0" y="0" width="138" height="142" filterUnits="userSpaceOnUse" color-interpolation-filters="sRGB">
<feFlood flood-opacity="0" result="BackgroundImageFix"/>
<feBlend mode="normal" in="SourceGraphic" in2="BackgroundImageFix" result="shape"/>
<feColorMatrix in="SourceAlpha" type="matrix" values="0 0 0 0 0 0 0 0 0 0 0 0 0 0 0 0 0 0 127 0" result="hardAlpha"/>
<feOffset dy="4"/>
<feGaussianBlur stdDeviation="2"/>
<feComposite in2="hardAlpha" operator="arithmetic" k2="-1" k3="1"/>
<feColorMatrix type="matrix" values="0 0 0 0 0 0 0 0 0 0 0 0 0 0 0 0 0 0 0.25 0"/>
<feBlend mode="normal" in2="shape" result="effect1_innerShadow_11_550"/>
</filter>
</defs>
</svg>
