<svg width="138" height="138" viewBox="0 0 138 138" fill="none" xmlns="http://www.w3.org/2000/svg">
<g filter="url(#filter0_i_11_537)">
<path d="M12.0711 108C24.5064 126.117 45.3655 138 69 138C92.6345 138 113.494 126.117 125.929 108C124.349 105.513 122.696 103.626 121 102.238C110.458 93.6069 98.2602 104.24 91.753 109.913L91.7519 109.914L91.7495 109.916C91.3057 110.303 90.8885 110.667 90.5 111C89.5053 111.853 88.2581 113.2 86.803 114.788L86.5092 115.109C77.6573 124.776 61.4989 142.422 47.5 114C46.3836 111.733 45.2477 109.742 44.0998 108C38.5667 99.6051 32.755 97.0233 27.5 97.4831C20.9556 98.0557 15.2747 103.346 12.0711 108Z" fill="#BCE95C" fill-opacity="0.1"/>
<path d="M12.0711 108C24.5064 126.117 45.3655 138 69 138C92.6345 138 113.494 126.117 125.929 108C124.349 105.513 122.696 103.626 121 102.238C110.458 93.6069 98.2602 104.24 91.753 109.913L91.7519 109.914L91.7495 109.916C91.3057 110.303 90.8885 110.667 90.5 111C89.5053 111.853 88.2581 113.2 86.803 114.788L86.5092 115.109C77.6573 124.776 61.4989 142.422 47.5 114C46.3836 111.733 45.2477 109.742 44.0998 108C38.5667 99.6051 32.755 97.0233 27.5 97.4831C20.9556 98.0557 15.2747 103.346 12.0711 108Z" fill="#8CF4FB"/>
<path d="M47.5 114C61.4989 142.422 77.6573 124.776 86.5092 115.109L86.803 114.788C85.4756 114.812 84.0765 115.586 82.375 116.528C76.4699 119.796 66.9237 125.079 44.0998 108C45.2477 109.742 46.3836 111.733 47.5 114Z" fill="#74E5F4"/>
<path d="M7.3391 100C8.73926 102.78 10.3218 105.451 12.0711 108C15.2747 103.346 20.9556 98.0557 27.5 97.4831C16.5 90.5 10.7261 93.6554 7.3391 100Z" fill="#BCE95C" fill-opacity="0.1"/>
<path d="M7.3391 100C8.73926 102.78 10.3218 105.451 12.0711 108C15.2747 103.346 20.9556 98.0557 27.5 97.4831C16.5 90.5 10.7261 93.6554 7.3391 100Z" fill="#74E5F4"/>
<path d="M69 0C30.8924 0 0 30.8924 0 69C0 80.1485 2.64398 90.6794 7.3391 100C10.7261 93.6554 16.5 90.5 27.5 97.4831C32.755 97.0233 38.5667 99.6051 44.0998 108C66.9237 125.079 76.4699 119.796 82.375 116.528C84.0765 115.586 85.4756 114.812 86.803 114.788C88.2581 113.2 89.5053 111.853 90.5 111C90.8885 110.667 91.3057 110.303 91.7495 109.916L91.7519 109.914L91.753 109.913C98.2602 104.24 110.458 93.6069 121 102.238C130.708 96.0476 134.612 90.1667 135.351 88C137.076 81.9641 138 75.5899 138 69C138 30.8924 107.108 0 69 0Z" fill="#BCE95C" fill-opacity="0.1"/>
<path d="M121 102.238C122.696 103.626 124.349 105.513 125.929 108C130.077 101.957 133.287 95.2205 135.351 88C134.612 90.1667 130.708 96.0476 121 102.238Z" fill="#74E5F4"/>
</g>
<path d="M88.5388 86.12V95H54.6588V37.16H65.4188V86.12H88.5388Z" fill="#8C8C8C"/>
<defs>
<filter id="filter0_i_11_537" x="0" y="0" width="138" height="142" filterUnits="userSpaceOnUse" color-interpolation-filters="sRGB">
<feFlood flood-opacity="0" result="BackgroundImageFix"/>
<feBlend mode="normal" in="SourceGraphic" in2="BackgroundImageFix" result="shape"/>
<feColorMatrix in="SourceAlpha" type="matrix" values="0 0 0 0 0 0 0 0 0 0 0 0 0 0 0 0 0 0 127 0" result="hardAlpha"/>
<feOffset dy="4"/>
<feGaussianBlur stdDeviation="2"/>
<feComposite in2="hardAlpha" operator="arithmetic" k2="-1" k3="1"/>
<feColorMatrix type="matrix" values="0 0 0 0 0 0 0 0 0 0 0 0 0 0 0 0 0 0 0.25 0"/>
<feBlend mode="normal" in2="shape" result="effect1_innerShadow_11_537"/>
</filter>
</defs>
</svg>
