<svg width="138" height="138" viewBox="0 0 138 138" fill="none" xmlns="http://www.w3.org/2000/svg">
<g filter="url(#filter0_i_11_545)">
<path d="M138 69C138 107.108 107.108 138 69 138C30.8924 138 0 107.108 0 69C0 30.8924 30.8924 3.43677e-05 69 3.43677e-05C107.108 3.43677e-05 138 30.8924 138 69Z" fill="#BCE95C" fill-opacity="0.1"/>
</g>
<path d="M100.348 43.0777V100.918H90.8675V63.5577C90.8675 62.0644 90.9475 60.4511 91.1075 58.7177L73.6275 91.5577C72.8008 93.1311 71.5342 93.9177 69.8275 93.9177H68.3075C66.6008 93.9177 65.3342 93.1311 64.5075 91.5577L46.8275 58.5977C46.9075 59.4777 46.9742 60.3444 47.0275 61.1977C47.0808 62.0511 47.1075 62.8377 47.1075 63.5577V100.918H37.6275V43.0777H45.7475C46.2275 43.0777 46.6408 43.0911 46.9875 43.1177C47.3342 43.1444 47.6408 43.2111 47.9075 43.3177C48.2008 43.4244 48.4542 43.5977 48.6675 43.8377C48.9075 44.0777 49.1342 44.3977 49.3475 44.7977L66.6675 76.9177C67.1208 77.7711 67.5342 78.6511 67.9075 79.5577C68.3075 80.4644 68.6942 81.3977 69.0675 82.3577C69.4408 81.3711 69.8275 80.4244 70.2275 79.5177C70.6275 78.5844 71.0542 77.6911 71.5075 76.8377L88.5875 44.7977C88.8008 44.3977 89.0275 44.0777 89.2675 43.8377C89.5075 43.5977 89.7608 43.4244 90.0275 43.3177C90.3208 43.2111 90.6408 43.1444 90.9875 43.1177C91.3342 43.0911 91.7475 43.0777 92.2275 43.0777H100.348Z" fill="#8C8C8C"/>
<defs>
<filter id="filter0_i_11_545" x="0" y="0" width="138" height="142" filterUnits="userSpaceOnUse" color-interpolation-filters="sRGB">
<feFlood flood-opacity="0" result="BackgroundImageFix"/>
<feBlend mode="normal" in="SourceGraphic" in2="BackgroundImageFix" result="shape"/>
<feColorMatrix in="SourceAlpha" type="matrix" values="0 0 0 0 0 0 0 0 0 0 0 0 0 0 0 0 0 0 127 0" result="hardAlpha"/>
<feOffset dy="4"/>
<feGaussianBlur stdDeviation="2"/>
<feComposite in2="hardAlpha" operator="arithmetic" k2="-1" k3="1"/>
<feColorMatrix type="matrix" values="0 0 0 0 0 0 0 0 0 0 0 0 0 0 0 0 0 0 0.25 0"/>
<feBlend mode="normal" in2="shape" result="effect1_innerShadow_11_545"/>
</filter>
</defs>
</svg>
