<svg width="41" height="40" viewBox="0 0 41 40" fill="none" xmlns="http://www.w3.org/2000/svg">
<g clip-path="url(#clip0_1_73)">
<path fill-rule="evenodd" clip-rule="evenodd" d="M9.0396 28.2724L11.8676 30.9657L3.38359 39.0476L0.553589 36.3543L9.0396 28.2724ZM24.5536 27.6191C17.9376 27.6191 12.5536 22.4914 12.5536 16.1905C12.5536 9.88763 17.9376 4.76192 24.5536 4.76192C31.1716 4.76192 36.5536 9.88763 36.5536 16.1905C36.5536 22.4914 31.1716 27.6191 24.5536 27.6191ZM24.5536 0.952393C15.7176 0.952393 8.55358 7.77525 8.55358 16.1905C8.55358 24.6057 15.7176 31.4286 24.5536 31.4286C33.3916 31.4286 40.5536 24.6057 40.5536 16.1905C40.5536 7.77525 33.3916 0.952393 24.5536 0.952393Z" fill="#8C8C8C"/>
</g>
<defs>
<clipPath id="clip0_1_73">
<rect width="40" height="40" fill="white" transform="translate(0.553589)"/>
</clipPath>
</defs>
</svg>
