<svg width="54" height="55" viewBox="0 0 54 55" fill="none" xmlns="http://www.w3.org/2000/svg">
<rect width="54" height="55" fill="#F5F5F5"/>
<g clip-path="url(#clip0_0_1)">
<rect width="1440" height="4969" transform="translate(-1006 -598)" fill="white"/>
<ellipse cx="27" cy="27.5" rx="27" ry="27.5" fill="#8C8C8C"/>
<g filter="url(#filter0_i_0_1)">
<path fill-rule="evenodd" clip-rule="evenodd" d="M11.7931 8.31602C6.30352 12.8359 2.7931 19.7504 2.7931 27.5C3.75693 23.6015 10.2447 18.4522 21.4138 11.6954C27 8.31602 33.2069 11.6954 31.6552 21.4943C29.7931 31.2931 25.5475 38.3736 40.841 47.7299C42.6073 46.4739 44.2014 44.9841 45.58 43.3046C49.0927 39.0253 51.2069 33.5141 51.2069 27.5C51.2069 13.8833 40.3691 2.84483 27 2.84482C21.2396 2.84482 15.9492 4.89414 11.7931 8.31602Z" fill="#8FE471"/>
<path d="M2.7931 27.5C2.7931 41.1167 13.6309 52.1552 27 52.1552C32.1468 52.1552 36.9185 50.5192 40.841 47.7299C25.5475 38.3736 29.7931 31.2931 31.6552 21.4943C33.2069 11.6954 27 8.31602 21.4138 11.6954C10.2447 18.4522 3.75693 23.6015 2.7931 27.5Z" fill="#EEFFE9"/>
</g>
</g>
<defs>
<filter id="filter0_i_0_1" x="2.79311" y="2.84483" width="48.4138" height="53.3103" filterUnits="userSpaceOnUse" color-interpolation-filters="sRGB">
<feFlood flood-opacity="0" result="BackgroundImageFix"/>
<feBlend mode="normal" in="SourceGraphic" in2="BackgroundImageFix" result="shape"/>
<feColorMatrix in="SourceAlpha" type="matrix" values="0 0 0 0 0 0 0 0 0 0 0 0 0 0 0 0 0 0 127 0" result="hardAlpha"/>
<feOffset dy="4"/>
<feGaussianBlur stdDeviation="2"/>
<feComposite in2="hardAlpha" operator="arithmetic" k2="-1" k3="1"/>
<feColorMatrix type="matrix" values="0 0 0 0 0 0 0 0 0 0 0 0 0 0 0 0 0 0 0.25 0"/>
<feBlend mode="normal" in2="shape" result="effect1_innerShadow_0_1"/>
</filter>
<clipPath id="clip0_0_1">
<rect width="1440" height="4969" fill="white" transform="translate(-1006 -598)"/>
</clipPath>
</defs>
</svg>
