<svg width="59" height="60" viewBox="0 0 59 60" fill="none" xmlns="http://www.w3.org/2000/svg">
<rect width="59" height="60" fill="#F5F5F5"/>
<g clip-path="url(#clip0_0_1)">
<rect width="1440" height="4969" transform="translate(-1080 -595)" fill="white"/>
<ellipse cx="29.4219" cy="30.0703" rx="29.1094" ry="29.6484" fill="#FF89A5"/>
<g filter="url(#filter0_i_0_1)">
<path fill-rule="evenodd" clip-rule="evenodd" d="M20.2917 53.5054C26.8796 56.0877 34.5141 55.7268 41.1035 51.852C37.3068 52.9511 27.5663 52.6593 18.3548 43.3297C12.2414 37.1379 9.03032 33.8159 12.2414 27.023C23.4138 15.6437 38.9718 26.3444 39.2805 8.17639C37.3295 7.24642 35.2657 6.58523 33.1483 6.20894C27.7534 5.25019 22.0102 6.14093 16.8966 9.14799C5.31858 15.9563 1.35167 31.0352 8.03622 42.8276C10.9164 47.9086 15.3041 51.5505 20.2917 53.5054Z" fill="#8FE471"/>
<path d="M41.1035 51.852C52.6814 45.0437 56.6483 29.9648 49.9638 18.1724C47.3904 13.6326 43.6135 10.2417 39.2805 8.17639C38.9718 26.3444 23.4138 15.6437 12.2414 27.023C9.03032 33.8159 12.2414 37.1379 18.3548 43.3297C27.5663 52.6593 37.3068 52.9511 41.1035 51.852Z" fill="#5BB745"/>
</g>
</g>
<defs>
<filter id="filter0_i_0_1" x="4.78906" y="5.84071" width="48.4219" height="53.3186" filterUnits="userSpaceOnUse" color-interpolation-filters="sRGB">
<feFlood flood-opacity="0" result="BackgroundImageFix"/>
<feBlend mode="normal" in="SourceGraphic" in2="BackgroundImageFix" result="shape"/>
<feColorMatrix in="SourceAlpha" type="matrix" values="0 0 0 0 0 0 0 0 0 0 0 0 0 0 0 0 0 0 127 0" result="hardAlpha"/>
<feOffset dy="4"/>
<feGaussianBlur stdDeviation="2"/>
<feComposite in2="hardAlpha" operator="arithmetic" k2="-1" k3="1"/>
<feColorMatrix type="matrix" values="0 0 0 0 0 0 0 0 0 0 0 0 0 0 0 0 0 0 0.25 0"/>
<feBlend mode="normal" in2="shape" result="effect1_innerShadow_0_1"/>
</filter>
<clipPath id="clip0_0_1">
<rect width="1440" height="4969" fill="white" transform="translate(-1080 -595)"/>
</clipPath>
</defs>
</svg>
