<!DOCTYPE svg PUBLIC "-//W3C//DTD SVG 1.1//EN" "http://www.w3.org/Graphics/SVG/1.1/DTD/svg11.dtd">
<!-- Uploaded to: SVG Repo, www.svgrepo.com, Transformed by: SVG Repo Mixer Tools -->
<svg width="256px" height="256px" viewBox="-2.4 -2.4 28.80 28.80" fill="none" xmlns="http://www.w3.org/2000/svg" transform="matrix(1, 0, 0, 1, 0, 0)rotate(0)" stroke="#dbffe1">
<g id="SVGRepo_bgCarrier" stroke-width="0">
<rect x="-2.4" y="-2.4" width="28.80" height="28.80" rx="14.4" fill="#82d988" strokewidth="0"/>
</g>
<g id="SVGRepo_tracerCarrier" stroke-linecap="round" stroke-linejoin="round"/>
<g id="SVGRepo_iconCarrier"> <path opacity="0.1" d="M4.44905 17.0091C-0.246262 7.83768 7.34063 0.686186 19.5547 3.61251C20.4161 3.81888 21.0082 4.6099 20.9652 5.49458C20.5863 13.288 17.0342 17.7048 6.13264 17.9858C5.43034 18.0039 4.7692 17.6344 4.44905 17.0091Z" fill="#ffffff"/> <path d="M4.44905 17.0091C-0.246262 7.83768 7.34063 0.686186 19.5547 3.61251C20.4161 3.81888 21.0082 4.6099 20.9652 5.49458C20.5863 13.288 17.0342 17.7048 6.13264 17.9858C5.43034 18.0039 4.7692 17.6344 4.44905 17.0091Z" stroke="#ffffff" stroke-width="2" stroke-linecap="round" stroke-linejoin="round"/> <path d="M3.99987 21C5.49993 15.5 5.99988 12.5 11.9998 9.99997" stroke="#ffffff" stroke-width="2" stroke-linecap="round" stroke-linejoin="round"/> </g>
</svg>