<!DOCTYPE svg PUBLIC "-//W3C//DTD SVG 1.1//EN" "http://www.w3.org/Graphics/SVG/1.1/DTD/svg11.dtd">
<!-- Uploaded to: SVG Repo, www.svgrepo.com, Transformed by: SVG Repo Mixer Tools -->
<svg width="256px" height="256px" viewBox="0 0 1024 1024" class="icon" xmlns="http://www.w3.org/2000/svg" fill="#ffffff">
<g id="SVGRepo_bgCarrier" stroke-width="0"/>
<g id="SVGRepo_tracerCarrier" stroke-linecap="round" stroke-linejoin="round"/>
<g id="SVGRepo_iconCarrier">
<path fill="#ffffff" d="M512 64a64 64 0 0164 64v64H448v-64a64 64 0 0164-64z"/>
<path fill="#ffffff" d="M256 768h512V448a256 256 0 10-512 0v320zm256-640a320 320 0 01320 320v384H192V448a320 320 0 01320-320z"/>
<path fill="#ffffff" d="M96 768h832q32 0 32 32t-32 32H96q-32 0-32-32t32-32zM448 896h128a64 64 0 01-128 0z"/>
</g>
</svg>