<svg width="1382" height="969" viewBox="0 0 1382 969" fill="none" xmlns="http://www.w3.org/2000/svg">
<rect x="302" y="442.091" width="609" height="526" fill="#F4F4F4"/>
<path fill-rule="evenodd" clip-rule="evenodd" d="M188.264 255.985C186.648 246.625 187.619 236.707 191.616 227.317C202.671 201.347 232.686 189.257 258.656 200.312C277.118 208.171 288.566 225.613 289.67 244.371C292.602 244.929 295.52 245.808 298.378 247.025C311.218 252.491 319.967 263.545 322.996 276.146C329.185 274.724 335.864 275.175 342.154 277.852C346.432 279.673 350.092 282.338 353.023 285.57C356.871 284.426 361.079 284.554 365.007 286.226C374.191 290.135 378.358 301.007 374.313 310.508C374.136 310.926 373.945 311.333 373.743 311.731C374.54 311.997 375.332 312.297 376.119 312.632C377.029 313.019 377.91 313.444 378.763 313.905C379.231 312.07 379.844 310.245 380.61 308.447C388.564 289.761 409.903 280.953 428.272 288.772C442.908 295.002 451.242 309.909 450.002 325.162C456.562 328.502 460.24 335.548 459.701 342.811C460.017 342.933 460.333 343.062 460.648 343.196C468.679 346.615 474.533 353.007 477.474 360.543C484.735 356.603 493.66 355.894 501.851 359.381C511.721 363.583 517.938 372.775 518.813 382.764C522.62 382.703 526.5 383.421 530.229 385.008C534.067 386.642 537.352 389.03 539.986 391.926C550.179 381.188 566.174 377.279 580.39 383.331C582.467 384.215 584.417 385.274 586.231 386.484C595.944 380.38 608.281 378.947 619.509 383.727C629.502 387.981 636.558 396.28 639.633 405.973C640.479 406.245 641.319 406.558 642.152 406.913C647.905 409.362 652.479 413.437 655.584 418.398C667.376 404.381 687.169 398.982 704.674 406.433L704.694 406.442C712.61 389.49 732.354 381.639 749.395 388.893C761.515 394.052 769.075 405.491 770.01 417.948C770.437 417.831 770.855 417.712 771.264 417.591L771.264 757.591L188.264 757.591L188.264 255.985Z" fill="#F4F4F4" fill-opacity="0.5"/>
<path fill-rule="evenodd" clip-rule="evenodd" d="M1122.66 52.5525C1120.79 43.9063 1116.51 35.678 1109.79 28.9591C1091.2 10.3755 1061.07 10.3755 1042.49 28.9591C1029.28 42.1705 1025.46 61.2177 1031.03 77.8031C1028.69 79.3056 1026.48 81.0796 1024.43 83.1251C1015.25 92.3131 1011.54 104.905 1013.3 116.841C1007.46 117.767 1001.85 120.48 997.35 124.981C994.289 128.042 992.055 131.617 990.648 135.428C986.927 135.778 983.336 137.353 980.526 140.164C973.954 146.736 974.138 157.575 980.936 164.374C981.235 164.673 981.541 164.959 981.855 165.232C981.259 165.739 980.679 166.273 980.116 166.836C979.465 167.487 978.851 168.162 978.275 168.856C977.233 167.434 976.068 166.072 974.781 164.785C961.41 151.414 939.915 151.23 926.77 164.374C916.297 174.847 914.285 190.622 920.663 203.364C916.16 208.531 915.434 215.896 918.427 221.981C918.196 222.198 917.968 222.418 917.743 222.644C911.996 228.391 909.164 235.948 909.246 243.48C901.604 242.604 893.649 245.096 887.787 250.958C880.724 258.021 878.553 268.123 881.273 277.055C877.964 278.327 874.862 280.297 872.194 282.965C869.448 285.711 867.441 288.917 866.174 292.334C853.634 286.606 838.46 288.796 828.287 298.969C826.8 300.455 825.485 302.048 824.339 303.724C813.827 301.831 802.673 304.886 794.638 312.921C787.487 320.072 784.281 329.694 784.997 339.136C784.361 339.665 783.744 340.228 783.148 340.824C779.032 344.941 776.499 350.052 775.543 355.417C760.482 347.413 741.508 349.636 728.982 362.162L728.968 362.176C716.233 350.29 696.449 350.378 684.254 362.573C675.582 371.245 673.032 383.755 676.558 394.839C676.149 394.886 675.747 394.929 675.351 394.968L793.644 688.621L1297.17 485.784L1122.66 52.5525Z" fill="#F4F4F4" fill-opacity="0.5"/>
<path fill-rule="evenodd" clip-rule="evenodd" d="M900.667 366.888C898.032 347.787 881.917 333.091 862.43 333.091C841.566 333.091 824.566 349.94 823.84 371.004L823.815 371.004C802.384 371.004 784.251 385.333 778.213 405.065C772.806 401.293 766.267 399.087 759.223 399.087C758.204 399.087 757.195 399.134 756.198 399.224C748.733 390.535 737.759 385.046 725.523 385.046C711.777 385.046 699.621 391.975 692.247 402.586C689.834 402.133 687.345 401.896 684.802 401.896C667.397 401.896 652.542 413.004 646.715 428.632C642.707 426.792 638.248 425.767 633.55 425.767C628.985 425.767 624.646 426.735 620.727 428.477C615.413 418.509 604.913 411.725 592.829 411.725C582.8 411.725 573.862 416.398 568.075 423.685C561.702 417.172 552.813 413.129 542.981 413.129C542.595 413.129 542.211 413.135 541.829 413.148C539.039 404.957 531.492 399.087 522.62 399.087C520.886 399.087 519.203 399.312 517.596 399.733C510.136 390.201 498.63 384.091 485.721 384.091C480.259 384.091 475.048 385.185 470.288 387.169C465.444 365.936 446.443 350.091 423.742 350.091C400.007 350.091 380.317 367.412 376.623 390.102C369.216 379.79 357.238 373.091 343.721 373.091C334.618 373.091 326.213 376.129 319.432 381.263C309.262 364.984 291.181 354.154 270.571 354.154C238.775 354.154 213 379.929 213 411.725C213 415.395 213.343 418.985 214 422.465V620.591H901V374.324C901.03 373.689 901.045 373.05 901.045 372.408C901.045 371.766 901.03 371.127 901 370.492V366.591C900.89 366.69 900.779 366.789 900.667 366.888Z" fill="#F4F4F4"/>
</svg>
