<svg width="1276" height="978" viewBox="0 0 1276 978" fill="none" xmlns="http://www.w3.org/2000/svg">
<rect x="266" y="342" width="920" height="651" fill="#F4F4F4"/>
<path fill-rule="evenodd" clip-rule="evenodd" d="M1188.53 291.754C1188.53 315.902 1171.89 336.094 1149.66 341.097C1150.3 344.704 1150.63 348.419 1150.63 352.213C1150.63 386.601 1123.16 414.478 1089.27 414.478C1070.92 414.478 1054.45 406.302 1043.2 393.344C1035.58 406.021 1021.88 414.478 1006.25 414.478C998.812 414.478 991.812 412.564 985.697 409.193C978.815 412.579 971.093 414.478 962.935 414.478C959.667 414.478 956.468 414.173 953.366 413.59C943.889 427.229 928.265 436.135 910.597 436.135C898.204 436.135 886.817 431.753 877.852 424.43C870.494 434.79 858.398 441.549 844.723 441.549C829.191 441.549 815.696 432.829 808.866 420.017C803.83 422.257 798.253 423.501 792.385 423.501C782.366 423.501 773.195 419.873 766.114 413.859C758.059 426.185 744.139 434.33 728.316 434.33C708.264 434.33 691.267 421.249 685.393 403.155C676.774 409.507 666.177 413.251 654.721 413.251C649.956 413.251 645.34 412.603 640.953 411.39C634.781 428.956 618.048 441.549 598.373 441.549C577.806 441.549 560.453 427.788 555.02 408.971C548.6 412.482 541.234 414.478 533.401 414.478C508.483 414.478 488.282 394.277 488.282 369.359C488.282 351.447 498.719 335.974 513.843 328.687C513.747 327.281 513.698 325.863 513.698 324.432C513.698 290.543 541.17 263.07 575.06 263.07C604.238 263.07 628.659 283.435 634.885 310.726C641.003 308.176 647.7 306.77 654.721 306.77C671.312 306.77 686.1 314.623 695.689 326.875C697.755 326.332 699.918 326.044 702.147 326.044C713.55 326.044 723.249 333.589 726.835 344.116C727.327 344.1 727.82 344.092 728.316 344.092C740.954 344.092 752.378 349.287 760.569 357.659C768.007 348.293 779.495 342.287 792.385 342.287C807.917 342.287 821.412 351.007 828.242 363.819C833.279 361.579 838.856 360.335 844.723 360.335C850.762 360.335 856.493 361.653 861.644 364.017C869.133 343.931 888.226 329.654 910.597 329.654C913.865 329.654 917.064 329.958 920.166 330.541C929.644 316.902 945.267 307.997 962.935 307.997C978.661 307.997 992.767 315.052 1002.36 326.22C1003.64 326.103 1004.94 326.044 1006.25 326.044C1015.3 326.044 1023.71 328.879 1030.66 333.727C1038.42 308.366 1061.72 289.949 1089.27 289.949L1089.3 289.949C1090.23 262.876 1112.08 241.22 1138.9 241.22C1166.31 241.22 1188.53 263.845 1188.53 291.754ZM378.192 416.282C419.058 416.282 452.187 383.154 452.187 342.287C452.187 301.421 419.058 268.292 378.192 268.292C337.325 268.292 304.196 301.421 304.196 342.287C304.196 383.154 337.325 416.282 378.192 416.282Z" fill="#F4F4F4"/>
<path fill-rule="evenodd" clip-rule="evenodd" d="M1219.72 112.488C1228.79 131.042 1223.6 152.808 1208.39 165.008C1210.24 167.539 1211.89 170.267 1213.31 173.183C1226.23 199.605 1215.6 231.347 1189.56 244.079C1175.46 250.975 1159.73 250.882 1146.22 245.15C1145.13 257.752 1137.78 269.397 1125.77 275.271C1120.05 278.066 1113.96 279.225 1107.99 278.933C1103.98 284.121 1098.76 288.481 1092.49 291.546C1089.98 292.774 1087.41 293.741 1084.8 294.459C1082.64 308.5 1073.99 321.212 1060.41 327.851C1050.89 332.507 1040.49 333.419 1030.85 331.16C1029.09 341.885 1022.34 351.623 1011.83 356.761C999.895 362.597 986.25 360.967 976.188 353.689C973.16 357.302 969.342 360.354 964.834 362.558C957.136 366.323 948.726 366.981 941.025 365.02C939.467 377.517 931.831 389.006 919.673 394.951C900.527 404.313 877.416 396.381 868.053 377.235C867.848 376.816 867.651 376.394 867.463 375.972C863.2 383.38 856.788 389.616 848.578 393.631C845.722 395.028 842.787 396.088 839.817 396.826C839.967 397.115 840.114 397.406 840.258 397.7C849.62 416.846 841.688 439.958 822.542 449.32C806.739 457.047 788.235 452.994 776.99 440.577C773.377 445.686 768.467 449.987 762.448 452.93C754.843 456.649 746.613 457.639 738.866 456.282C735.937 472.061 725.834 486.299 710.309 493.89C695.817 500.977 679.654 500.778 665.975 494.719C660.248 502.07 652.803 508.264 643.868 512.633C612.468 527.987 574.565 514.979 559.211 483.578C543.857 452.178 556.865 414.276 588.265 398.921C610.588 388.006 636.198 391.424 654.655 405.595C657.555 403.303 660.743 401.283 664.199 399.593C679.724 392.002 697.165 392.771 711.418 400.148C715.103 393.201 720.939 387.313 728.544 383.594C733.716 381.065 739.178 379.798 744.579 379.673C746.627 375.143 750.159 371.307 754.907 368.985C766.012 363.554 779.568 368.465 785.186 379.953C785.433 380.458 785.66 380.966 785.868 381.479C786.763 380.948 787.686 380.449 788.637 379.984C789.737 379.446 790.85 378.965 791.973 378.54C790.633 376.615 789.423 374.562 788.359 372.387C777.312 349.794 786.361 322.675 808.571 311.815C826.267 303.161 846.979 307.441 860.255 320.965C868.699 317.531 878.277 319.798 884.64 326.189C885.012 325.992 885.388 325.801 885.769 325.615C895.479 320.866 906.21 320.566 915.649 323.922C917.845 313.93 924.415 304.999 934.32 300.156C946.254 294.32 959.899 295.95 969.961 303.228C972.989 299.615 976.807 296.563 981.315 294.359C985.956 292.09 990.854 290.949 995.701 290.831C993.908 272.583 1003.21 254.439 1020.4 246.034C1022.91 244.806 1025.49 243.839 1028.09 243.121C1030.25 229.08 1038.91 216.367 1052.48 209.729C1064.56 203.82 1078.05 203.942 1089.62 208.918C1090.56 208.348 1091.54 207.814 1092.54 207.322C1099.5 203.921 1107.02 202.942 1114.18 204.055C1110.62 181.653 1121.61 158.745 1142.77 148.396L1142.79 148.384C1133.34 127.231 1141.99 102.382 1162.6 92.3067C1183.66 82.008 1209.23 91.0433 1219.72 112.488Z" fill="#F4F4F4" fill-opacity="0.5"/>
<path fill-rule="evenodd" clip-rule="evenodd" d="M746.129 336.025C738.04 355.029 718.183 365.347 699.005 361.834C698.301 364.887 697.32 367.923 696.049 370.909C684.529 397.971 653.57 410.706 626.9 399.353C612.457 393.204 602.233 381.252 597.725 367.288C587.485 374.713 573.87 376.778 561.566 371.541C555.713 369.049 550.845 365.198 547.162 360.496C540.612 360.856 533.899 359.763 527.479 357.03C524.907 355.935 522.492 354.624 520.245 353.126C508.218 360.684 492.939 362.459 479.035 356.54C469.282 352.388 461.789 345.126 457.186 336.359C447.925 342.047 436.141 343.314 425.38 338.733C413.157 333.53 405.458 322.146 404.375 309.776C399.661 309.851 394.855 308.962 390.237 306.996C382.353 303.64 376.351 297.712 372.793 290.607C362.325 297.609 348.641 299.355 336.189 294.055C316.579 285.707 307.449 263.042 315.797 243.432C315.979 243.003 316.169 242.578 316.365 242.159C307.974 243.785 299.063 243.019 290.653 239.439C287.728 238.194 285.006 236.669 282.504 234.907C282.384 235.209 282.26 235.511 282.132 235.812C273.784 255.422 251.119 264.552 231.509 256.204C215.323 249.314 206.277 232.671 208.305 216.043C202.077 216.655 195.611 215.758 189.447 213.134C181.658 209.818 175.522 204.243 171.478 197.499C157.631 205.611 140.254 207.292 124.353 200.523C109.51 194.205 99.0817 181.855 94.7089 167.547C85.4035 168.028 75.8474 166.453 66.6968 162.558C34.536 148.868 19.5628 111.698 33.2533 79.5369C46.9438 47.3761 84.1137 32.403 116.275 46.0935C139.138 55.8263 153.315 77.4258 154.682 100.656C158.313 101.348 161.926 102.436 165.466 103.943C181.367 110.711 192.201 124.401 195.952 140.005C203.617 138.245 211.888 138.803 219.677 142.119C224.975 144.374 229.508 147.674 233.138 151.676C237.903 150.259 243.115 150.418 247.978 152.488C259.352 157.33 264.512 170.794 259.503 182.56C259.283 183.076 259.047 183.581 258.796 184.074C259.784 184.403 260.765 184.775 261.739 185.189C262.866 185.669 263.958 186.196 265.014 186.766C265.593 184.493 266.353 182.234 267.301 180.007C277.151 156.867 303.577 145.958 326.325 155.642C344.45 163.357 354.771 181.817 353.235 200.706C361.358 204.843 365.914 213.568 365.246 222.562C365.638 222.714 366.029 222.874 366.419 223.04C376.365 227.273 383.615 235.189 387.256 244.522C396.248 239.643 407.3 238.765 417.445 243.083C429.668 248.286 437.367 259.67 438.45 272.04C443.164 271.965 447.97 272.854 452.587 274.819C457.34 276.842 461.408 279.8 464.67 283.386C477.292 270.088 497.101 265.248 514.706 272.742C517.279 273.837 519.694 275.149 521.94 276.647C533.967 269.088 549.246 267.313 563.15 273.232C575.526 278.501 584.264 288.778 588.072 300.781C589.12 301.119 590.16 301.507 591.192 301.946C598.316 304.979 603.98 310.025 607.825 316.169C622.428 298.81 646.94 292.124 668.618 301.352L668.642 301.362C678.446 280.369 702.896 270.646 724 279.63C745.572 288.813 755.479 314.062 746.129 336.025Z" fill="#F4F4F4" fill-opacity="0.5"/>
</svg>
