<svg width="50" height="50" viewBox="0 0 50 50" fill="none" xmlns="http://www.w3.org/2000/svg">
<path d="M38.5416 47.3958C33.6666 47.3958 29.6875 43.4167 29.6875 38.5417V37.5C29.6875 36.6458 30.3958 35.9375 31.25 35.9375C32.1041 35.9375 32.8125 36.6458 32.8125 37.5V38.5417C32.8125 41.7083 35.375 44.2708 38.5416 44.2708C41.7083 44.2708 44.2708 41.7083 44.2708 38.5417C44.2708 35.375 41.7083 32.8125 38.5416 32.8125H4.16663C3.31246 32.8125 2.60413 32.1042 2.60413 31.25C2.60413 30.3958 3.31246 29.6875 4.16663 29.6875H38.5416C43.4166 29.6875 47.3958 33.6667 47.3958 38.5417C47.3958 43.4167 43.4166 47.3958 38.5416 47.3958Z" fill="#7F96A3"/>
<path opacity="0.4" d="M38.5416 26.5625H4.16663C3.31246 26.5625 2.60413 25.8542 2.60413 25C2.60413 24.1459 3.31246 23.4375 4.16663 23.4375H38.5416C41.7083 23.4375 44.2708 20.875 44.2708 17.7084C44.2708 14.5417 41.7083 11.9792 38.5416 11.9792C35.375 11.9792 32.8125 14.5417 32.8125 17.7084V18.75C32.8125 19.6042 32.1041 20.3125 31.25 20.3125C30.3958 20.3125 29.6875 19.6042 29.6875 18.75V17.7084C29.6875 12.8334 33.6666 8.85419 38.5416 8.85419C43.4166 8.85419 47.3958 12.8334 47.3958 17.7084C47.3958 22.5834 43.4166 26.5625 38.5416 26.5625Z" fill="#7F96A3"/>
<path d="M19.3958 20.3128H4.16663C3.31246 20.3128 2.60413 19.6044 2.60413 18.7503C2.60413 17.8961 3.31246 17.1878 4.16663 17.1878H19.3958C21.625 17.1878 23.4375 15.3753 23.4375 13.1461C23.4375 10.9169 21.625 9.10443 19.3958 9.10443C17.1666 9.10443 15.3541 10.9169 15.3541 13.1461V13.9378C15.3541 14.7919 14.6458 15.5003 13.7916 15.5003C12.9375 15.5003 12.2291 14.8128 12.2291 13.9378V13.1461C12.2291 9.18776 15.4375 5.97943 19.3958 5.97943C23.3541 5.97943 26.5625 9.18776 26.5625 13.1461C26.5625 17.1044 23.3541 20.3128 19.3958 20.3128Z" fill="#7F96A3"/>
</svg>
