<svg width="138" height="138" viewBox="0 0 138 138" fill="none" xmlns="http://www.w3.org/2000/svg">
<g filter="url(#filter0_i_11_538)">
<path d="M12.0711 108C24.5064 126.117 45.3655 138 69 138C92.6345 138 113.494 126.117 125.929 108C124.349 105.513 122.696 103.626 121 102.238C110.458 93.6069 98.2602 104.24 91.753 109.913L91.7519 109.914L91.7495 109.916C91.3057 110.303 90.8885 110.667 90.5 111C89.5053 111.853 88.2581 113.2 86.803 114.788L86.5092 115.109C77.6573 124.776 61.4989 142.422 47.5 114C46.3836 111.733 45.2477 109.742 44.0998 108C38.5667 99.6051 32.755 97.0233 27.5 97.4831C20.9556 98.0557 15.2747 103.346 12.0711 108Z" fill="#BCE95C" fill-opacity="0.1"/>
<path d="M12.0711 108C24.5064 126.117 45.3655 138 69 138C92.6345 138 113.494 126.117 125.929 108C124.349 105.513 122.696 103.626 121 102.238C110.458 93.6069 98.2602 104.24 91.753 109.913L91.7519 109.914L91.7495 109.916C91.3057 110.303 90.8885 110.667 90.5 111C89.5053 111.853 88.2581 113.2 86.803 114.788L86.5092 115.109C77.6573 124.776 61.4989 142.422 47.5 114C46.3836 111.733 45.2477 109.742 44.0998 108C38.5667 99.6051 32.755 97.0233 27.5 97.4831C20.9556 98.0557 15.2747 103.346 12.0711 108Z" fill="#8CF4FB"/>
<path d="M47.5 114C61.4989 142.422 77.6573 124.776 86.5092 115.109L86.803 114.788C85.4756 114.812 84.0765 115.586 82.375 116.528C76.4699 119.796 66.9237 125.079 44.0998 108C45.2477 109.742 46.3836 111.733 47.5 114Z" fill="#74E5F4"/>
<path d="M7.3391 100C8.73926 102.78 10.3218 105.451 12.0711 108C15.2747 103.346 20.9556 98.0557 27.5 97.4831C16.5 90.5 10.7261 93.6554 7.3391 100Z" fill="#BCE95C" fill-opacity="0.1"/>
<path d="M7.3391 100C8.73926 102.78 10.3218 105.451 12.0711 108C15.2747 103.346 20.9556 98.0557 27.5 97.4831C16.5 90.5 10.7261 93.6554 7.3391 100Z" fill="#74E5F4"/>
<path d="M69 0C30.8924 0 0 30.8924 0 69C0 80.1485 2.64398 90.6794 7.3391 100C10.7261 93.6554 16.5 90.5 27.5 97.4831C32.755 97.0233 38.5667 99.6051 44.0998 108C66.9237 125.079 76.4699 119.796 82.375 116.528C84.0765 115.586 85.4756 114.812 86.803 114.788C88.2581 113.2 89.5053 111.853 90.5 111C90.8885 110.667 91.3057 110.303 91.7495 109.916L91.7519 109.914L91.753 109.913C98.2602 104.24 110.458 93.6069 121 102.238C130.708 96.0476 134.612 90.1667 135.351 88C137.076 81.9641 138 75.5899 138 69C138 30.8924 107.108 0 69 0Z" fill="#BCE95C" fill-opacity="0.1"/>
<path d="M121 102.238C122.696 103.626 124.349 105.513 125.929 108C130.077 101.957 133.287 95.2205 135.351 88C134.612 90.1667 130.708 96.0476 121 102.238Z" fill="#74E5F4"/>
</g>
<path d="M80.2925 74.44C80.2925 77.6933 79.8925 80.6267 79.0925 83.24C78.2925 85.8533 77.0925 88.08 75.4925 89.92C73.9192 91.76 71.9458 93.1733 69.5725 94.16C67.1992 95.1467 64.4392 95.64 61.2925 95.64C59.8525 95.64 58.4392 95.5467 57.0525 95.36C55.6658 95.2 54.2125 94.9333 52.6925 94.56C52.7725 93.4933 52.8658 92.4267 52.9725 91.36C53.0792 90.2933 53.1725 89.2267 53.2525 88.16C53.3325 87.5733 53.5592 87.1067 53.9325 86.76C54.3325 86.3867 54.8925 86.2 55.6125 86.2C56.0658 86.2 56.6525 86.2933 57.3725 86.48C58.1192 86.6667 59.0525 86.76 60.1725 86.76C61.6925 86.76 63.0392 86.5467 64.2125 86.12C65.3858 85.6667 66.3592 84.96 67.1325 84C67.9325 83.04 68.5325 81.8 68.9325 80.28C69.3325 78.7333 69.5325 76.8667 69.5325 74.68V37.16H80.2925V74.44Z" fill="#8C8C8C"/>
<defs>
<filter id="filter0_i_11_538" x="0" y="0" width="138" height="142" filterUnits="userSpaceOnUse" color-interpolation-filters="sRGB">
<feFlood flood-opacity="0" result="BackgroundImageFix"/>
<feBlend mode="normal" in="SourceGraphic" in2="BackgroundImageFix" result="shape"/>
<feColorMatrix in="SourceAlpha" type="matrix" values="0 0 0 0 0 0 0 0 0 0 0 0 0 0 0 0 0 0 127 0" result="hardAlpha"/>
<feOffset dy="4"/>
<feGaussianBlur stdDeviation="2"/>
<feComposite in2="hardAlpha" operator="arithmetic" k2="-1" k3="1"/>
<feColorMatrix type="matrix" values="0 0 0 0 0 0 0 0 0 0 0 0 0 0 0 0 0 0 0.25 0"/>
<feBlend mode="normal" in2="shape" result="effect1_innerShadow_11_538"/>
</filter>
</defs>
</svg>
