<svg width="46" height="46" viewBox="0 0 46 46" fill="none" xmlns="http://www.w3.org/2000/svg">
<g clip-path="url(#clip0_2_80)">
<path d="M0.958328 6.51666C4.63833 6.51666 4.63833 8.3375 8.29916 8.3375C11.96 8.3375 11.9792 6.51666 15.64 6.51666C19.3008 6.51666 19.32 8.3375 22.9808 8.3375C26.6417 8.3375 26.6608 6.51666 30.3217 6.51666C33.9825 6.51666 34.0017 8.3375 37.6817 8.3375C41.3617 8.3375 41.3617 6.51666 45.0417 6.51666" stroke="#9AACB6" stroke-width="4" stroke-miterlimit="10"/>
<path d="M0.958328 17.5375C4.63833 17.5375 4.63833 19.3583 8.29916 19.3583C11.96 19.3583 11.9792 17.5375 15.64 17.5375C19.3008 17.5375 19.32 19.3583 22.9808 19.3583C26.6417 19.3583 26.6608 17.5375 30.3217 17.5375C33.9825 17.5375 34.0017 19.3583 37.6817 19.3583C41.3617 19.3583 41.3617 17.5375 45.0417 17.5375" stroke="#9AACB6" stroke-width="4" stroke-miterlimit="10"/>
<path d="M0.958328 28.5583C4.63833 28.5583 4.63833 30.3792 8.29916 30.3792C11.96 30.3792 11.9792 28.5583 15.64 28.5583C19.3008 28.5583 19.32 30.3792 22.9808 30.3792C26.6417 30.3792 26.6608 28.5583 30.3217 28.5583C33.9825 28.5583 34.0017 30.3792 37.6817 30.3792C41.3617 30.3792 41.3617 28.5583 45.0417 28.5583" stroke="#9AACB6" stroke-width="4" stroke-miterlimit="10"/>
<path d="M0.958328 39.5792C4.63833 39.5792 4.63833 41.4958 8.29916 41.4958C11.96 41.4958 11.9792 39.5792 15.64 39.5792C19.3008 39.5792 19.32 41.4958 22.9808 41.4958C26.6417 41.4958 26.6608 39.5792 30.3217 39.5792C33.9825 39.5792 34.0017 41.4958 37.6817 41.4958C41.3617 41.4958 41.3617 39.5792 45.0417 39.5792" stroke="#9AACB6" stroke-width="4" stroke-miterlimit="10"/>
</g>
<defs>
<clipPath id="clip0_2_80">
<rect width="46" height="46" fill="white"/>
</clipPath>
</defs>
</svg>
