<svg width="51" height="40" viewBox="0 0 51 40" fill="none" xmlns="http://www.w3.org/2000/svg">
<path d="M25.4647 2C15.8519 2 8.67165 8.24345 4.40262 13.3575C1.19913 17.1952 1.19913 22.622 4.40262 26.4598C8.67165 31.5738 15.8519 37.8172 25.4647 37.8172C35.0776 37.8172 42.2579 31.5738 46.5268 26.4598C49.7304 22.622 49.7304 17.1952 46.5268 13.3575C42.2579 8.24345 35.0776 2 25.4647 2Z" stroke="#9AACB6" stroke-width="4" stroke-linecap="round" stroke-linejoin="round"/>
<path d="M25.4648 27.5837C29.7037 27.5837 33.1399 24.1476 33.1399 19.9086C33.1399 15.6696 29.7037 12.2335 25.4648 12.2335C21.2258 12.2335 17.7896 15.6696 17.7896 19.9086C17.7896 24.1476 21.2258 27.5837 25.4648 27.5837Z" stroke="#9AACB6" stroke-width="4" stroke-linecap="round" stroke-linejoin="round"/>
</svg>
